Coordinates
version=1
nRows=14
nColumns=63
inDegrees=yes

Units are S.I. units (second, meters, Newtons, ...)
If the header above contains a line with 'inDegrees', this indicates whether rotational values are in degrees (yes) or radians (no).

endheader
time	pelvis_tilt	pelvis_list	pelvis_rotation	pelvis_tx	pelvis_ty	pelvis_tz	hip_flexion_r	hip_adduction_r	hip_rotation_r	knee_angle_r	knee_angle_r_beta	ankle_angle_r	subtalar_angle_r	mtp_angle_r	hip_flexion_l	hip_adduction_l	hip_rotation_l	knee_angle_l	knee_angle_l_beta	ankle_angle_l	subtalar_angle_l	mtp_angle_l	L5_S1_Flex_Ext	L5_S1_Lat_Bending	L5_S1_axial_rotation	L4_L5_Flex_Ext	L4_L5_Lat_Bending	L4_L5_axial_rotation	L3_L4_Flex_Ext	L3_L4_Lat_Bending	L3_L4_axial_rotation	L2_L3_Flex_Ext	L2_L3_Lat_Bending	L2_L3_axial_rotation	L1_L2_Flex_Ext	L1_L2_Lat_Bending	L1_L2_axial_rotation	L1_T12_Flex_Ext	L1_T12_Lat_Bending	L1_T12_axial_rotation	Abs_r3	Abs_r2	Abs_r1	Abs_t1	Abs_t2	neck_flexion	neck_bending	neck_rotation	arm_flex_r	arm_add_r	arm_rot_r	elbow_flex_r	pro_sup_r	wrist_flex_r	wrist_dev_r	arm_flex_l	arm_add_l	arm_rot_l	elbow_flex_l	pro_sup_l	wrist_flex_l	wrist_dev_l
2.415094	-0.092011	-5.856869	96.180713	0.189427	0.705060	0.918094	9.120808	-2.138859	-8.595944	9.658123	0.168566	22.066439	9.887954	0.000000	11.797685	-0.517886	-4.634706	11.986264	0.209200	24.785547	5.917094	0.000000	0.348631	-0.260416	0.901324	0.647442	-0.346354	0.957657	0.572765	-0.633176	0.957657	0.398450	-0.633176	0.788658	0.323738	-0.531041	0.732326	0.199208	-0.403385	0.675993	2.490234	-2.945881	5.012893	0.000000	0.000000	28.365180	-2.102639	-5.002394	-5.002098	-14.961620	36.093146	25.596896	66.497885	-10.971506	-9.247945	6.840282	-15.534165	62.438387	20.113664	70.696821	-15.002850	-6.791520
2.433962	-0.164454	-5.944945	95.608585	0.189853	0.705093	0.916851	9.284831	-2.109131	-7.721975	9.775470	0.170614	22.129625	9.392093	0.000000	11.653591	-0.507236	-5.062071	11.769672	0.205420	24.794519	5.799618	0.000000	0.356038	-0.263046	1.003525	0.661198	-0.349851	1.066245	0.584935	-0.639570	1.066245	0.406916	-0.639570	0.878084	0.330617	-0.536403	0.815364	0.203440	-0.407458	0.752644	2.543143	-2.975627	5.581304	0.000000	0.000000	28.371693	-2.016375	-4.899603	-5.082844	-14.918575	35.396137	25.758416	66.699338	-10.853068	-8.773212	6.741512	-15.520644	62.041335	20.258866	71.308784	-15.056158	-6.498782
2.452830	-0.237452	-6.027925	94.955445	0.190361	0.705143	0.915550	9.483026	-2.055571	-6.679396	9.945995	0.173590	22.161025	8.719508	0.000000	11.483238	-0.492820	-5.450302	11.521977	0.201096	24.783726	5.497198	0.000000	0.361005	-0.263860	1.110001	0.670423	-0.350934	1.179376	0.593096	-0.641550	1.179376	0.412593	-0.641550	0.971251	0.335230	-0.538064	0.901875	0.206279	-0.408720	0.832500	2.578626	-2.984840	6.173490	0.000000	0.000000	28.374365	-1.886605	-4.719904	-5.157650	-14.874721	34.546376	25.924488	67.220340	-10.690066	-8.278706	6.648565	-15.482818	61.469813	20.413635	72.137156	-14.980657	-6.023153
2.471698	-0.307876	-6.074427	94.240977	0.190943	0.705250	0.914221	9.674190	-1.977677	-5.511620	10.156875	0.177271	22.145046	7.903621	0.000000	11.262511	-0.491032	-5.918116	11.261622	0.196552	24.787428	5.211730	0.000000	0.358970	-0.262511	1.215503	0.666644	-0.349139	1.291472	0.589753	-0.638269	1.291472	0.410267	-0.638269	1.063565	0.333340	-0.535312	0.987596	0.205116	-0.406629	0.911627	2.564090	-2.969574	6.760262	0.000000	0.000000	28.372284	-1.725843	-4.485595	-5.175987	-14.852870	33.869076	26.079455	67.689044	-10.547569	-7.830534	6.579514	-15.427218	60.908367	20.575548	72.855801	-14.878022	-5.425990
2.490566	-0.368617	-6.085840	93.514013	0.191545	0.705398	0.912927	9.850074	-1.866737	-4.180409	10.391727	0.181370	22.047412	6.817094	0.000000	11.014255	-0.495238	-6.336993	11.017913	0.192299	24.783176	4.823656	0.000000	0.350971	-0.258521	1.315161	0.651788	-0.343833	1.397358	0.576610	-0.628568	1.397358	0.401125	-0.628568	1.150766	0.325912	-0.527176	1.068568	0.200545	-0.400449	0.986371	2.506951	-2.924443	7.314530	0.000000	0.000000	28.364229	-1.559749	-4.231971	-5.136868	-14.853843	33.391001	26.195158	68.160534	-10.414201	-7.467825	6.561697	-15.347445	60.483889	20.705068	73.460037	-14.735173	-4.768810
2.509434	-0.414482	-6.047782	92.809036	0.192113	0.705593	0.911711	9.985324	-1.747586	-2.997854	10.645661	0.185802	21.912817	5.860260	0.000000	10.737721	-0.524769	-6.856403	10.816873	0.188790	24.817567	4.597356	0.000000	0.335831	-0.251509	1.408832	0.623671	-0.334506	1.496884	0.551736	-0.611518	1.496884	0.383821	-0.611518	1.232728	0.311852	-0.512876	1.144676	0.191894	-0.389587	1.056624	2.398805	-2.845115	7.835501	0.000000	0.000000	28.347911	-1.414062	-4.011643	-5.038081	-14.892331	33.233637	26.257707	68.456232	-10.293314	-7.226916	6.675404	-15.238391	60.666286	20.734005	73.479069	-14.569207	-4.158615
2.528302	-0.450137	-5.971057	92.153243	0.192620	0.705791	0.910577	10.083966	-1.616591	-1.836253	10.911355	0.190439	21.714008	4.813913	0.000000	10.446269	-0.543309	-7.202390	10.655232	0.185969	24.792518	4.166591	0.000000	0.315758	-0.242754	1.492650	0.586394	-0.322862	1.585941	0.518759	-0.590231	1.585941	0.360880	-0.590231	1.306069	0.293213	-0.495023	1.212778	0.180424	-0.376025	1.119488	2.255427	-2.746077	8.301672	0.000000	0.000000	28.326556	-1.282304	-3.843466	-4.914684	-14.951093	33.232453	26.294183	68.734667	-10.171605	-7.029427	6.822255	-15.116286	60.875208	20.769876	73.478707	-14.325675	-3.422707
2.547170	-0.465768	-5.868939	91.573225	0.193033	0.705980	0.909531	10.154744	-1.478004	-0.798004	11.187822	0.195264	21.471746	3.808789	0.000000	10.163263	-0.567202	-7.447454	10.551532	0.184159	24.727253	3.661497	0.000000	0.293097	-0.231361	1.559110	0.544311	-0.307710	1.656554	0.481529	-0.562530	1.656554	0.334981	-0.562530	1.364221	0.272170	-0.471791	1.266777	0.167476	-0.358378	1.169332	2.093564	-2.617198	8.671301	0.000000	0.000000	28.301596	-1.146327	-3.684145	-4.757603	-15.028394	33.409915	26.291920	69.002361	-10.052756	-6.831308	7.003804	-14.984336	61.228796	20.787260	73.313588	-14.049576	-2.619197
2.566038	-0.466487	-5.759481	91.042035	0.193369	0.706129	0.908565	10.218949	-1.344684	0.089106	11.477009	0.200312	21.220353	2.942536	0.000000	9.902502	-0.582777	-7.537149	10.500407	0.183267	24.587629	2.954169	0.000000	0.270307	-0.218022	1.614098	0.501987	-0.289969	1.714979	0.444087	-0.530098	1.714979	0.308934	-0.530098	1.412335	0.251007	-0.444590	1.311454	0.154453	-0.337716	1.210573	1.930776	-2.466305	8.977127	0.000000	0.000000	28.273978	-1.002771	-3.514027	-4.579543	-15.118665	33.720380	26.255758	69.208616	-9.921858	-6.594826	7.164688	-14.843900	61.441296	20.843829	73.260322	-13.733997	-1.684319
2.584906	-0.438153	-5.636656	90.620013	0.193570	0.706262	0.907696	10.258258	-1.206258	0.786642	11.766290	0.205360	20.962823	2.190172	0.000000	9.679246	-0.615733	-7.554761	10.533640	0.183847	24.418771	2.257777	0.000000	0.245415	-0.201626	1.645639	0.455760	-0.268162	1.748492	0.403192	-0.490233	1.748492	0.280485	-0.490233	1.439934	0.227892	-0.411155	1.337082	0.140230	-0.312318	1.234230	1.752974	-2.280832	9.152553	0.000000	0.000000	28.243849	-0.838990	-3.323744	-4.350665	-15.230236	34.276702	26.156836	69.319867	-9.768617	-6.378016	7.349694	-14.700153	61.789163	20.881328	73.088444	-13.440198	-0.748882
2.603774	-0.379351	-5.545645	90.326054	0.193602	0.706324	0.906896	10.309165	-1.077148	1.234029	12.039556	0.210130	20.729208	1.644093	0.000000	9.537185	-0.648126	-7.396245	10.636996	0.185651	24.188450	1.448264	0.000000	0.225918	-0.181796	1.645068	0.419553	-0.241788	1.747885	0.371161	-0.442018	1.747885	0.258202	-0.442018	1.439435	0.209788	-0.370718	1.336618	0.129090	-0.281602	1.233801	1.613711	-2.056510	9.149376	0.000000	0.000000	28.211083	-0.634582	-2.967896	-4.082230	-15.355950	35.027168	26.011324	69.264478	-9.596646	-6.115874	7.468373	-14.561362	61.933497	20.971705	73.070871	-13.146460	0.203027
2.622642	-0.291178	-5.464260	90.184354	0.193451	0.706356	0.906154	10.340779	-0.962786	1.369200	12.292382	0.214543	20.544503	1.369992	0.000000	9.469710	-0.680506	-7.049426	10.839652	0.189188	23.909868	0.540248	0.000000	0.208023	-0.159495	1.610114	0.386319	-0.212129	1.710746	0.341761	-0.387797	1.710746	0.237749	-0.387797	1.408850	0.193170	-0.325243	1.308217	0.118864	-0.247058	1.207585	1.485887	-1.804242	8.954970	0.000000	0.000000	28.178038	-0.400267	-2.532631	-3.763070	-15.498132	36.027845	25.811878	69.047959	-9.421848	-5.874951	7.538020	-14.427010	61.938592	21.089475	73.150137	-12.867706	1.152501
2.641509	-0.182218	-5.413230	90.141330	0.193155	0.706327	0.905460	10.395626	-0.869531	1.261947	12.556691	0.219156	20.452176	1.358358	0.000000	9.475076	-0.710523	-6.571459	11.102767	0.193780	23.599274	-0.452664	0.000000	0.195573	-0.134465	1.552039	0.363198	-0.178838	1.649042	0.321306	-0.326938	1.649042	0.223520	-0.326938	1.358035	0.181609	-0.274201	1.261032	0.111750	-0.208286	1.164030	1.396956	-1.521094	8.631978	0.000000	0.000000	28.144582	-0.129097	-1.927610	-3.421251	-15.667164	37.222820	25.600944	68.613509	-9.287533	-5.662001	7.561514	-14.298632	61.941032	21.212179	73.279941	-12.683271	1.944954
2.660377	-0.057234	-5.366036	90.192255	0.192783	0.706269	0.904793	10.432286	-0.771959	1.142741	12.799501	0.223393	20.401261	1.293656	0.000000	9.532774	-0.750162	-6.025481	11.444221	0.199739	23.296899	-1.424632	0.000000	0.184602	-0.108668	1.475877	0.342825	-0.144529	1.568120	0.303283	-0.264216	1.568120	0.210982	-0.264216	1.291393	0.171422	-0.221597	1.199150	0.105482	-0.168327	1.106908	1.318595	-1.229279	8.208387	0.000000	0.000000	28.117405	0.148012	-1.272454	-3.130680	-15.796784	38.093903	25.428215	68.509064	-9.109852	-5.371854	7.462867	-14.185147	61.363381	21.410275	73.960681	-12.546861	2.704128
